<svg aria-hidden="true" style="position: absolute; width: 0; height: 0; overflow: hidden;" version="1.1" xmlns="http://www.w3.org/2000/svg" xmlns:xlink="http://www.w3.org/1999/xlink">
<defs>
<symbol id="atb-logo" viewBox="0 0 82 32">
<path fill="#f84f39" style="fill: var(--color1, #f84f39)" d="M21.004 0.939h7.562v29.44h-7.562v-3.974h-13.527l7.59-7.202h5.937v-7.82l-21.004 19.679v-10.387l21.004-19.736z"></path>
<path fill="#f84f39" style="fill: var(--color1, #f84f39)" d="M36.837 8.987h-6.207v-7.714h27.112l-8.151 7.714h-4.611v21.726h-8.143v-21.726z"></path>
<path fill="#f84f39" style="fill: var(--color1, #f84f39)" d="M74.781 8.382h-15.145v15.25h8.2c0.355 0.012 0.706-0.082 1.007-0.27 0.275-0.172 0.497-0.418 0.638-0.711 0.155-0.334 0.232-0.698 0.227-1.066 0.013-0.519-0.164-1.024-0.497-1.422-0.174-0.189-0.388-0.338-0.625-0.437s-0.494-0.143-0.751-0.132h-6.569v-7.131h8.051c1.061-0.011 2.112 0.21 3.079 0.647 0.962 0.422 1.822 1.045 2.525 1.827 0.741 0.827 1.31 1.794 1.674 2.844 0.426 1.192 0.635 2.452 0.617 3.718-0.003 1.184-0.212 2.358-0.617 3.469-0.393 1.069-0.967 2.062-1.695 2.936-0.689 0.846-1.541 1.544-2.504 2.055-0.936 0.494-1.978 0.755-3.036 0.761h-17.237v-22.338l7.512-7.109h22.65l-7.505 7.109z"></path>
</symbol>
<symbol id="mobile-menu-btn" viewBox="0 0 31 32">
<path d="M3.84 23.68v-2.56h23.040v2.56h-23.040zM3.84 17.28v-2.56h23.040v2.56h-23.040zM3.84 10.88v-2.56h23.040v2.56h-23.040z"></path>
</symbol>
</defs>
</svg>
