<svg aria-hidden="true" style="position: absolute; width: 0; height: 0; overflow: hidden;" version="1.1" xmlns="http://www.w3.org/2000/svg" xmlns:xlink="http://www.w3.org/1999/xlink">
<defs>
<symbol id="atb-logo" viewBox="0 0 82 32">
<path fill="#f84f39" style="fill: var(--color1, #f84f39)" d="M21.004 0.939h7.562v29.44h-7.562v-3.974h-13.527l7.59-7.202h5.937v-7.82l-21.004 19.679v-10.387l21.004-19.736z"></path>
<path fill="#f84f39" style="fill: var(--color1, #f84f39)" d="M36.837 8.987h-6.207v-7.714h27.112l-8.151 7.714h-4.611v21.726h-8.143v-21.726z"></path>
<path fill="#f84f39" style="fill: var(--color1, #f84f39)" d="M74.781 8.382h-15.145v15.25h8.2c0.355 0.012 0.706-0.082 1.007-0.27 0.275-0.172 0.497-0.418 0.638-0.711 0.155-0.334 0.232-0.698 0.227-1.066 0.013-0.519-0.164-1.024-0.497-1.422-0.174-0.189-0.388-0.338-0.625-0.437s-0.494-0.143-0.751-0.132h-6.569v-7.131h8.051c1.061-0.011 2.112 0.21 3.079 0.647 0.962 0.422 1.822 1.045 2.525 1.827 0.741 0.827 1.31 1.794 1.674 2.844 0.426 1.192 0.635 2.452 0.617 3.718-0.003 1.184-0.212 2.358-0.617 3.469-0.393 1.069-0.967 2.062-1.695 2.936-0.689 0.846-1.541 1.544-2.504 2.055-0.936 0.494-1.978 0.755-3.036 0.761h-17.237v-22.338l7.512-7.109h22.65l-7.505 7.109z"></path>
</symbol>
<symbol id="mobile-menu-btn" viewBox="0 0 31 32">
<path d="M3.84 23.68v-2.56h23.040v2.56h-23.040zM3.84 17.28v-2.56h23.040v2.56h-23.040zM3.84 10.88v-2.56h23.040v2.56h-23.040z"></path>
</symbol>
<symbol id="arrow-down" viewBox="0 0 30 32">
<path fill="none" stroke="#9689e8" style="stroke: var(--color1, #9689e8)" stroke-linejoin="miter" stroke-linecap="round" stroke-miterlimit="4" stroke-width="4.8" d="M16.6 2.525v18.106c0 0.354 1.317 8.559 2.041 7.654 1.939-2.424 13.587-16.534 6.123-7.313-0.79 0.976-5.033 8.504-6.349 8.504-3.587 0-12.397-13.191-15.080-15.874"></path>
</symbol>
<symbol id="chevron-right" viewBox="0 0 31 32">
<path d="M15.019 18.308c1-1 1-2.621 0-3.62l-2.892-2.892c-0.655-0.655-0.655-1.716 0-2.371s1.716-0.655 2.371 0l5.263 5.263c1 1 1 2.621 0 3.62l-5.263 5.263c-0.655 0.655-1.716 0.655-2.371 0s-0.655-1.716 0-2.371l2.892-2.892z"></path>
</symbol>
<symbol id="question-show" viewBox="0 0 32 32">
<path d="M14.483 19.517c0-1.105-0.896-2-2-2h-4.571c-0.838 0-1.517-0.679-1.517-1.517s0.679-1.517 1.517-1.517h4.571c1.104 0 2-0.895 2-2v-4.571c0-0.838 0.679-1.517 1.517-1.517s1.517 0.679 1.517 1.517v4.571c0 1.105 0.895 2 2 2h4.571c0.838 0 1.517 0.679 1.517 1.517s-0.679 1.517-1.517 1.517h-4.571c-1.105 0-2 0.895-2 2v4.571c0 0.838-0.679 1.517-1.517 1.517s-1.517-0.679-1.517-1.517v-4.571z"></path>
</symbol>
<symbol id="question-hide" viewBox="0 0 32 32">
<path d="M14.483 17.517h-6.571c-0.838 0-1.517-0.679-1.517-1.517s0.679-1.517 1.517-1.517h16.175c0.838 0 1.517 0.679 1.517 1.517s-0.679 1.517-1.517 1.517h-9.604z"></path>
</symbol>
<symbol id="download" viewBox="0 0 30 32">
<path d="M15.158 23.447l-8.421-8.421 2.358-2.442 4.379 4.379v-13.726h3.368v13.726l4.379-4.379 2.358 2.442-8.421 8.421zM25.263 28.5v-3.368h-20.211v3.368h20.211z"></path>
</symbol>
</defs>
</svg>
