<svg aria-hidden="true" style="position: absolute; width: 0; height: 0; overflow: hidden;" version="1.1" xmlns="http://www.w3.org/2000/svg" xmlns:xlink="http://www.w3.org/1999/xlink">
<defs>
<symbol id="atb-logo" viewBox="0 0 82 32">
<path fill="#f84f39" style="fill: var(--color1, #f84f39)" d="M21.004 0.939h7.562v29.44h-7.562v-3.974h-13.527l7.59-7.202h5.937v-7.82l-21.004 19.679v-10.387l21.004-19.736z"></path>
<path fill="#f84f39" style="fill: var(--color1, #f84f39)" d="M36.837 8.987h-6.207v-7.714h27.112l-8.151 7.714h-4.611v21.726h-8.143v-21.726z"></path>
<path fill="#f84f39" style="fill: var(--color1, #f84f39)" d="M74.781 8.382h-15.145v15.25h8.2c0.355 0.012 0.706-0.082 1.007-0.27 0.275-0.172 0.497-0.418 0.638-0.711 0.155-0.334 0.232-0.698 0.227-1.066 0.013-0.519-0.164-1.024-0.497-1.422-0.174-0.189-0.388-0.338-0.625-0.437s-0.494-0.143-0.751-0.132h-6.569v-7.131h8.051c1.061-0.011 2.112 0.21 3.079 0.647 0.962 0.422 1.822 1.045 2.525 1.827 0.741 0.827 1.31 1.794 1.674 2.844 0.426 1.192 0.635 2.452 0.617 3.718-0.003 1.184-0.212 2.358-0.617 3.469-0.393 1.069-0.967 2.062-1.695 2.936-0.689 0.846-1.541 1.544-2.504 2.055-0.936 0.494-1.978 0.755-3.036 0.761h-17.237v-22.338l7.512-7.109h22.65l-7.505 7.109z"></path>
</symbol>
<symbol id="mobile-menu-btn" viewBox="0 0 31 32">
<path d="M3.84 23.68v-2.56h23.040v2.56h-23.040zM3.84 17.28v-2.56h23.040v2.56h-23.040zM3.84 10.88v-2.56h23.040v2.56h-23.040z"></path>
</symbol>
<symbol id="arrow-down" viewBox="0 0 30 32">
<path fill="none" stroke="#9689e8" style="stroke: var(--color1, #9689e8)" stroke-linejoin="miter" stroke-linecap="round" stroke-miterlimit="4" stroke-width="4.8" d="M16.6 2.525v18.106c0 0.354 1.317 8.559 2.041 7.654 1.939-2.424 13.587-16.534 6.123-7.313-0.79 0.976-5.033 8.504-6.349 8.504-3.587 0-12.397-13.191-15.080-15.874"></path>
</symbol>
<symbol id="chevron-right" viewBox="0 0 31 32">
<path d="M15.019 18.308c1-1 1-2.621 0-3.62l-2.892-2.892c-0.655-0.655-0.655-1.716 0-2.371s1.716-0.655 2.371 0l5.263 5.263c1 1 1 2.621 0 3.62l-5.263 5.263c-0.655 0.655-1.716 0.655-2.371 0s-0.655-1.716 0-2.371l2.892-2.892z"></path>
</symbol>
<symbol id="question-show" viewBox="0 0 32 32">
<path d="M14.483 19.517c0-1.105-0.896-2-2-2h-4.571c-0.838 0-1.517-0.679-1.517-1.517s0.679-1.517 1.517-1.517h4.571c1.104 0 2-0.895 2-2v-4.571c0-0.838 0.679-1.517 1.517-1.517s1.517 0.679 1.517 1.517v4.571c0 1.105 0.895 2 2 2h4.571c0.838 0 1.517 0.679 1.517 1.517s-0.679 1.517-1.517 1.517h-4.571c-1.105 0-2 0.895-2 2v4.571c0 0.838-0.679 1.517-1.517 1.517s-1.517-0.679-1.517-1.517v-4.571z"></path>
</symbol>
<symbol id="question-hide" viewBox="0 0 32 32">
<path d="M14.483 17.517h-6.571c-0.838 0-1.517-0.679-1.517-1.517s0.679-1.517 1.517-1.517h16.175c0.838 0 1.517 0.679 1.517 1.517s-0.679 1.517-1.517 1.517h-9.604z"></path>
</symbol>
<symbol id="download" viewBox="0 0 30 32">
<path d="M15.158 23.447l-8.421-8.421 2.358-2.442 4.379 4.379v-13.726h3.368v13.726l4.379-4.379 2.358 2.442-8.421 8.421zM25.263 28.5v-3.368h-20.211v3.368h20.211z"></path>
</symbol>
<symbol id="instagram" viewBox="0 0 32 32">
<path d="M16.662 2.806c4.056 0 4.61 0 6.269 0 1.475 0 2.213 0.369 2.766 0.553 0.738 0.369 1.291 0.553 1.844 1.106s0.922 1.106 1.106 1.844c0.184 0.553 0.369 1.291 0.553 2.766 0 1.659 0 2.028 0 6.269s0 4.61 0 6.269c0 1.475-0.369 2.213-0.553 2.766-0.369 0.738-0.553 1.291-1.106 1.844s-1.106 0.922-1.844 1.106c-0.553 0.184-1.291 0.369-2.766 0.553-1.66 0-2.028 0-6.269 0s-4.61 0-6.269 0c-1.475 0-2.213-0.369-2.766-0.553-0.738-0.369-1.291-0.553-1.844-1.106s-0.922-1.106-1.106-1.844c-0.184-0.553-0.369-1.291-0.553-2.766 0-1.66 0-2.028 0-6.269s0-4.61 0-6.269c0-1.475 0.369-2.213 0.553-2.766 0.369-0.738 0.553-1.291 1.106-1.844s1.106-0.922 1.844-1.106c0.553-0.184 1.291-0.369 2.766-0.553 1.659 0 2.213 0 6.269 0zM16.662 0.040c-4.241 0-4.61 0-6.269 0s-2.766 0.369-3.688 0.738c-0.922 0.369-1.844 0.922-2.766 1.844s-1.291 1.66-1.844 2.766c-0.369 0.922-0.553 2.028-0.738 3.688 0 1.659 0 2.213 0 6.269 0 4.241 0 4.61 0 6.269s0.369 2.766 0.738 3.688c0.369 0.922 0.922 1.844 1.844 2.766s1.659 1.291 2.766 1.844c0.922 0.369 2.028 0.553 3.688 0.738 1.659 0 2.213 0 6.269 0s4.61 0 6.269 0 2.766-0.369 3.688-0.738c0.922-0.369 1.844-0.922 2.766-1.844s1.291-1.659 1.844-2.766c0.369-0.922 0.553-2.028 0.738-3.688 0-1.66 0-2.213 0-6.269s0-4.61 0-6.269-0.369-2.766-0.738-3.688c-0.369-0.922-0.922-1.844-1.844-2.766s-1.66-1.291-2.766-1.844c-0.922-0.369-2.028-0.553-3.688-0.738-1.66 0-2.028 0-6.269 0z"></path>
<path d="M16.662 7.416c-4.425 0-7.929 3.503-7.929 7.929s3.503 7.929 7.929 7.929c4.425 0 7.929-3.503 7.929-7.929s-3.503-7.929-7.929-7.929zM16.662 20.508c-2.766 0-5.163-2.213-5.163-5.163 0-2.766 2.213-5.163 5.163-5.163 2.766 0 5.163 2.213 5.163 5.163 0 2.766-2.397 5.163-5.163 5.163z"></path>
<path d="M24.775 9.076c1.018 0 1.844-0.826 1.844-1.844s-0.825-1.844-1.844-1.844c-1.018 0-1.844 0.826-1.844 1.844s0.826 1.844 1.844 1.844z"></path>
</symbol>
<symbol id="facebook" viewBox="0 0 17 32">
<path d="M11.045 16.525h5.044l0.792-5.072h-5.837v-2.772c0-2.107 0.695-3.976 2.687-3.976h3.199v-4.426c-0.562-0.075-1.751-0.24-3.998-0.24-4.691 0-7.441 2.452-7.441 8.040v3.374h-4.822v5.072h4.822v13.942c0.955 0.142 1.922 0.239 2.915 0.239 0.898 0 1.774-0.081 2.638-0.197v-13.983z"></path>
</symbol>
<symbol id="footer-phone" viewBox="0 0 32 32">
<path d="M24.968 14.040c-2.416 4.725-6.259 8.568-10.984 10.984l-3.666-3.666c-0.218-0.218-0.493-0.371-0.793-0.442s-0.614-0.056-0.907 0.042c-1.92 0.631-3.929 0.952-5.95 0.95-0.918 0-1.668 0.75-1.668 1.666v5.818c0.002 0.442 0.178 0.865 0.49 1.177s0.736 0.488 1.178 0.489c15.65 0 28.332-12.684 28.332-28.334 0-0.916-0.75-1.666-1.666-1.666h-5.834c-0.916 0-1.666 0.75-1.666 1.666 0 2.084-0.334 4.084-0.95 5.95-0.094 0.294-0.106 0.609-0.032 0.909s0.229 0.574 0.448 0.791l3.668 3.666z"></path>
</symbol>
<symbol id="google-play-logo" viewBox="0 0 29 32">
<path d="M25.859 13.901l-21.156-12.097c-0.309-0.179-0.66-0.273-1.017-0.272s-0.708 0.097-1.016 0.277c-0.304 0.173-0.557 0.423-0.732 0.726s-0.267 0.646-0.266 0.996v24.221c-0.001 0.35 0.091 0.694 0.266 0.996s0.428 0.553 0.732 0.725c0.308 0.181 0.659 0.276 1.016 0.277s0.708-0.093 1.017-0.272l21.154-12.096c0.312-0.171 0.572-0.423 0.753-0.73s0.276-0.655 0.276-1.011-0.096-0.705-0.276-1.011c-0.181-0.306-0.44-0.558-0.752-0.73zM15.817 17.067l2.377 2.374-11.119 6.359 8.742-8.733zM7.074 5.482l11.122 6.359-2.378 2.376-8.744-8.735zM20.009 18.404l-2.765-2.764 2.765-2.762 4.832 2.764-4.832 2.762z"></path>
</symbol>
<symbol id="apple-store-logo" viewBox="0 0 27 32">
<path d="M18.356 4.971c1.033-1.231 1.726-2.949 1.536-4.657-1.484 0.061-3.28 0.979-4.343 2.211-0.956 1.091-1.792 2.837-1.565 4.51 1.654 0.128 3.346-0.831 4.376-2.065h-0.004zM22.070 15.809c0.043 4.413 3.916 5.882 3.958 5.901-0.032 0.104-0.617 2.093-2.041 4.147-1.229 1.777-2.505 3.547-4.515 3.584-1.975 0.035-2.609-1.158-4.869-1.158-2.255 0-2.962 1.122-4.832 1.193-1.939 0.073-3.417-1.921-4.658-3.69-2.532-3.621-4.468-10.231-1.869-14.694 1.29-2.216 3.597-3.621 6.103-3.655 1.905-0.037 3.703 1.268 4.868 1.268 1.165 0 3.35-1.568 5.647-1.338 0.963 0.040 3.662 0.384 5.397 2.894-0.14 0.085-3.222 1.859-3.189 5.547z"></path>
</symbol>
<symbol id="close" viewBox="0 0 31 32">
<path d="M8.192 24.96l-1.792-1.792 7.168-7.168-7.168-7.168 1.792-1.792 7.168 7.168 7.168-7.168 1.792 1.792-7.168 7.168 7.168 7.168-1.792 1.792-7.168-7.168-7.168 7.168z"></path>
</symbol>
<symbol id="close-modal-win" viewBox="0 0 32 32">
<path d="M9.879 23.954c-0.506 0.506-1.327 0.506-1.832 0s-0.506-1.326 0-1.832l5.31-5.31c0.61-0.61 0.61-1.598 0-2.208l-5.31-5.31c-0.506-0.506-0.506-1.326 0-1.832s1.326-0.506 1.832 0l5.31 5.31c0.61 0.61 1.598 0.61 2.208 0l5.31-5.31c0.506-0.506 1.326-0.506 1.832 0s0.506 1.327 0 1.833l-5.31 5.31c-0.61 0.61-0.61 1.598 0 2.208l5.31 5.31c0.506 0.506 0.506 1.327 0 1.832s-1.327 0.506-1.832 0l-5.31-5.31c-0.61-0.61-1.598-0.61-2.208 0l-5.31 5.31z"></path>
</symbol>
<symbol id="register-code-atb-logo" viewBox="0 0 64 32">
<path fill="#fff" style="fill: var(--color1, #fff)" d="M16.269 0h31.385c8.837 0 16 7.163 16 16s-7.163 16-16 16h-31.385c-8.837 0-16-7.163-16-16s7.163-16 16-16z"></path>
<path fill="#f84f39" style="fill: var(--color2, #f84f39)" d="M21.374 8.082h3.975v15.477h-3.975v-2.089h-7.112l3.99-3.786h3.121v-4.111l-11.042 10.346v-5.461l11.042-10.375z"></path>
<path fill="#f84f39" style="fill: var(--color2, #f84f39)" d="M29.698 12.313h-3.263v-4.055h14.253l-4.285 4.055h-2.424v11.422h-4.281v-11.422z"></path>
<path fill="#f84f39" style="fill: var(--color2, #f84f39)" d="M49.646 11.995h-7.962v8.017h4.311c0.187 0.006 0.371-0.043 0.53-0.142 0.145-0.090 0.261-0.22 0.336-0.374 0.081-0.175 0.122-0.367 0.119-0.561 0.007-0.273-0.086-0.538-0.261-0.747-0.092-0.1-0.204-0.178-0.329-0.23s-0.26-0.075-0.395-0.069h-3.453v-3.749h4.233c0.558-0.006 1.11 0.11 1.618 0.34 0.506 0.222 0.958 0.55 1.328 0.961 0.389 0.435 0.689 0.943 0.88 1.495 0.224 0.627 0.334 1.289 0.324 1.955-0.002 0.622-0.111 1.239-0.324 1.824-0.207 0.562-0.508 1.084-0.891 1.544-0.362 0.445-0.81 0.812-1.316 1.080-0.492 0.26-1.040 0.397-1.596 0.4h-9.062v-11.743l3.949-3.738h11.907l-3.946 3.738z"></path>
</symbol>
</defs>
</svg>
