<svg width="100" height="100" viewBox="0 0 100 100" fill="none" xmlns="http://www.w3.org/2000/svg">
<rect width="100" height="100" rx="20" fill="#9689E8"/>
<g filter="url(#filter0_d_699_638)">
<mask id="path-2-inside-1_699_638" fill="white">
<path d="M16.7903 68.5C15.115 68.5 13.8318 68.0723 12.9407 67.2168C12.0853 66.3257 11.6575 65.0603 11.6575 63.4207V35.8855C11.6575 34.2459 12.0853 32.9983 12.9407 32.1429C13.8318 31.2518 15.115 30.8062 16.7903 30.8062H36.4124C37.66 30.8062 38.6046 31.127 39.2462 31.7686C39.9234 32.4102 40.262 33.337 40.262 34.5489C40.262 35.7964 39.9234 36.7588 39.2462 37.4361C38.6046 38.0776 37.66 38.3984 36.4124 38.3984H21.0676V45.456H30.3708C34.4698 45.456 37.6956 46.454 40.0482 48.4501C42.4363 50.4106 43.6304 53.2443 43.6304 56.9513C43.6304 60.6583 42.4363 63.5098 40.0482 65.5059C37.6956 67.502 34.4698 68.5 30.3708 68.5H16.7903ZM21.0676 61.0682H29.0341C30.8519 61.0682 32.1708 60.7296 32.9906 60.0523C33.8461 59.3751 34.2738 58.3414 34.2738 56.9513C34.2738 55.5611 33.8461 54.5453 32.9906 53.9037C32.1708 53.2264 30.8519 52.8878 29.0341 52.8878H21.0676V61.0682ZM52.4778 68.9812C51.0521 68.9812 49.9471 68.5891 49.1629 67.8049C48.4144 67.0208 48.0401 65.9158 48.0401 64.49V34.8162C48.0401 33.3548 48.45 32.2498 49.2698 31.5013C50.0897 30.7171 51.2481 30.325 52.7452 30.325C53.9927 30.325 54.9729 30.5745 55.6858 31.0736C56.4343 31.5369 57.1116 32.3211 57.7175 33.4261L69.2128 54.0641H67.3415L78.7833 33.4261C79.4249 32.3211 80.1021 31.5369 80.815 31.0736C81.5635 30.5745 82.5616 30.325 83.8091 30.325C85.2349 30.325 86.322 30.7171 87.0706 31.5013C87.8547 32.2498 88.2468 33.3548 88.2468 34.8162V64.49C88.2468 65.9158 87.8726 67.0208 87.124 67.8049C86.3755 68.5891 85.2705 68.9812 83.8091 68.9812C82.3833 68.9812 81.2784 68.5891 80.4942 67.8049C79.7457 67.0208 79.3714 65.9158 79.3714 64.49V46.0976H80.4942L71.8861 61.0682C71.3871 61.8524 70.8524 62.4405 70.2821 62.8326C69.7475 63.2247 69.0168 63.4207 68.09 63.4207C67.1989 63.4207 66.4682 63.2247 65.8979 62.8326C65.3276 62.4405 64.8107 61.8524 64.3474 61.0682L55.6858 46.0441H56.9155V64.49C56.9155 65.9158 56.5413 67.0208 55.7927 67.8049C55.0442 68.5891 53.9392 68.9812 52.4778 68.9812Z"/>
</mask>
<path d="M16.7903 68.5C15.115 68.5 13.8318 68.0723 12.9407 67.2168C12.0853 66.3257 11.6575 65.0603 11.6575 63.4207V35.8855C11.6575 34.2459 12.0853 32.9983 12.9407 32.1429C13.8318 31.2518 15.115 30.8062 16.7903 30.8062H36.4124C37.66 30.8062 38.6046 31.127 39.2462 31.7686C39.9234 32.4102 40.262 33.337 40.262 34.5489C40.262 35.7964 39.9234 36.7588 39.2462 37.4361C38.6046 38.0776 37.66 38.3984 36.4124 38.3984H21.0676V45.456H30.3708C34.4698 45.456 37.6956 46.454 40.0482 48.4501C42.4363 50.4106 43.6304 53.2443 43.6304 56.9513C43.6304 60.6583 42.4363 63.5098 40.0482 65.5059C37.6956 67.502 34.4698 68.5 30.3708 68.5H16.7903ZM21.0676 61.0682H29.0341C30.8519 61.0682 32.1708 60.7296 32.9906 60.0523C33.8461 59.3751 34.2738 58.3414 34.2738 56.9513C34.2738 55.5611 33.8461 54.5453 32.9906 53.9037C32.1708 53.2264 30.8519 52.8878 29.0341 52.8878H21.0676V61.0682ZM52.4778 68.9812C51.0521 68.9812 49.9471 68.5891 49.1629 67.8049C48.4144 67.0208 48.0401 65.9158 48.0401 64.49V34.8162C48.0401 33.3548 48.45 32.2498 49.2698 31.5013C50.0897 30.7171 51.2481 30.325 52.7452 30.325C53.9927 30.325 54.9729 30.5745 55.6858 31.0736C56.4343 31.5369 57.1116 32.3211 57.7175 33.4261L69.2128 54.0641H67.3415L78.7833 33.4261C79.4249 32.3211 80.1021 31.5369 80.815 31.0736C81.5635 30.5745 82.5616 30.325 83.8091 30.325C85.2349 30.325 86.322 30.7171 87.0706 31.5013C87.8547 32.2498 88.2468 33.3548 88.2468 34.8162V64.49C88.2468 65.9158 87.8726 67.0208 87.124 67.8049C86.3755 68.5891 85.2705 68.9812 83.8091 68.9812C82.3833 68.9812 81.2784 68.5891 80.4942 67.8049C79.7457 67.0208 79.3714 65.9158 79.3714 64.49V46.0976H80.4942L71.8861 61.0682C71.3871 61.8524 70.8524 62.4405 70.2821 62.8326C69.7475 63.2247 69.0168 63.4207 68.09 63.4207C67.1989 63.4207 66.4682 63.2247 65.8979 62.8326C65.3276 62.4405 64.8107 61.8524 64.3474 61.0682L55.6858 46.0441H56.9155V64.49C56.9155 65.9158 56.5413 67.0208 55.7927 67.8049C55.0442 68.5891 53.9392 68.9812 52.4778 68.9812Z" fill="url(#paint0_linear_699_638)"/>
<path d="M12.9407 67.2168L12.3563 67.7778L12.3678 67.7898L12.3797 67.8012L12.9407 67.2168ZM12.9407 32.1429L13.5135 32.7157L13.5135 32.7157L12.9407 32.1429ZM39.2462 31.7686L38.6733 32.3414L38.6811 32.3492L38.689 32.3567L39.2462 31.7686ZM21.0676 38.3984V37.5883H20.2575V38.3984H21.0676ZM21.0676 45.456H20.2575V46.2661H21.0676V45.456ZM40.0482 48.4501L39.524 49.0679L39.5342 49.0763L40.0482 48.4501ZM40.0482 65.5059L39.5286 64.8843L39.524 64.8882L40.0482 65.5059ZM21.0676 61.0682H20.2575V61.8783H21.0676V61.0682ZM32.9906 60.0523L32.4878 59.4172L32.4812 59.4224L32.4747 59.4278L32.9906 60.0523ZM32.9906 53.9037L32.4747 54.5282L32.4893 54.5404L32.5045 54.5518L32.9906 53.9037ZM21.0676 52.8878V52.0777H20.2575V52.8878H21.0676ZM16.7903 67.6899C15.2481 67.6899 14.1948 67.2978 13.5017 66.6324L12.3797 67.8012C13.4688 68.8467 14.9819 69.3101 16.7903 69.3101V67.6899ZM13.5251 66.6558C12.8568 65.9597 12.4676 64.9216 12.4676 63.4207H10.8474C10.8474 65.1991 11.3137 66.6917 12.3563 67.7778L13.5251 66.6558ZM12.4676 63.4207V35.8855H10.8474V63.4207H12.4676ZM12.4676 35.8855C12.4676 34.3823 12.8577 33.3716 13.5135 32.7157L12.3679 31.5701C11.3128 32.6251 10.8474 34.1094 10.8474 35.8855H12.4676ZM13.5135 32.7157C14.2078 32.0214 15.2567 31.6163 16.7903 31.6163V29.9961C14.9734 29.9961 13.4558 30.4821 12.3679 31.5701L13.5135 32.7157ZM16.7903 31.6163H36.4124V29.9961H16.7903V31.6163ZM36.4124 31.6163C37.5275 31.6163 38.2334 31.9015 38.6733 32.3414L39.819 31.1958C38.9758 30.3526 37.7925 29.9961 36.4124 29.9961V31.6163ZM38.689 32.3567C39.1602 32.8031 39.4519 33.4895 39.4519 34.5489H41.0721C41.0721 33.1845 40.6866 32.0173 39.8033 31.1805L38.689 32.3567ZM39.4519 34.5489C39.4519 35.6493 39.1567 36.3799 38.6733 36.8632L39.819 38.0089C40.6901 37.1377 41.0721 35.9436 41.0721 34.5489H39.4519ZM38.6733 36.8632C38.2334 37.3032 37.5275 37.5883 36.4124 37.5883V39.2085C37.7925 39.2085 38.9758 38.8521 39.819 38.0089L38.6733 36.8632ZM36.4124 37.5883H21.0676V39.2085H36.4124V37.5883ZM20.2575 38.3984V45.456H21.8777V38.3984H20.2575ZM21.0676 46.2661H30.3708V44.6459H21.0676V46.2661ZM30.3708 46.2661C34.3416 46.2661 37.3601 47.2318 39.524 49.0678L40.5723 47.8324C38.0312 45.6763 34.5981 44.6459 30.3708 44.6459V46.2661ZM39.5342 49.0763C41.6971 50.8518 42.8203 53.4332 42.8203 56.9513H44.4405C44.4405 53.0553 43.1756 49.9693 40.5622 47.824L39.5342 49.0763ZM42.8203 56.9513C42.8203 60.4689 41.697 63.0719 39.5286 64.8843L40.5677 66.1275C43.1756 63.9477 44.4405 60.8476 44.4405 56.9513H42.8203ZM39.524 64.8882C37.3601 66.7243 34.3416 67.6899 30.3708 67.6899V69.3101C34.5981 69.3101 38.0312 68.2797 40.5723 66.1236L39.524 64.8882ZM30.3708 67.6899H16.7903V69.3101H30.3708V67.6899ZM21.0676 61.8783H29.0341V60.2581H21.0676V61.8783ZM29.0341 61.8783C30.9186 61.8783 32.4694 61.5336 33.5065 60.6769L32.4747 59.4278C31.8722 59.9255 30.7853 60.2581 29.0341 60.2581V61.8783ZM33.4934 60.6875C34.5944 59.8158 35.0839 58.5149 35.0839 56.9513H33.4637C33.4637 58.1679 33.0977 58.9343 32.4878 59.4172L33.4934 60.6875ZM35.0839 56.9513C35.0839 55.3899 34.5949 54.0943 33.4767 53.2556L32.5045 54.5518C33.0972 54.9963 33.4637 55.7324 33.4637 56.9513H35.0839ZM33.5065 53.2791C32.4694 52.4224 30.9186 52.0777 29.0341 52.0777V53.6979C30.7853 53.6979 31.8722 54.0305 32.4747 54.5282L33.5065 53.2791ZM29.0341 52.0777H21.0676V53.6979H29.0341V52.0777ZM20.2575 52.8878V61.0682H21.8777V52.8878H20.2575ZM49.1629 67.8049L48.5769 68.3643L48.5834 68.3711L48.5901 68.3778L49.1629 67.8049ZM49.2699 31.5013L49.8161 32.0995L49.823 32.0932L49.8298 32.0867L49.2699 31.5013ZM55.6858 31.0736L55.2213 31.7372L55.24 31.7503L55.2594 31.7624L55.6858 31.0736ZM57.7175 33.4261L57.0072 33.8156L57.0098 33.8203L57.7175 33.4261ZM69.2128 54.0641V54.8742H70.5913L69.9205 53.6699L69.2128 54.0641ZM67.3415 54.0641L66.633 53.6713L65.9661 54.8742H67.3415V54.0641ZM78.7833 33.4261L78.0827 33.0193L78.0787 33.0262L78.0748 33.0333L78.7833 33.4261ZM80.815 31.0736L81.2565 31.7528L81.2644 31.7476L80.815 31.0736ZM87.0706 31.5013L86.4846 32.0606L86.4976 32.0743L86.5112 32.0873L87.0706 31.5013ZM87.124 67.8049L87.71 68.3643L87.124 67.8049ZM80.4942 67.8049L79.9082 68.3643L79.9147 68.3711L79.9214 68.3778L80.4942 67.8049ZM79.3714 46.0976V45.2875H78.5613V46.0976H79.3714ZM80.4942 46.0976L81.1965 46.5014L81.8945 45.2875H80.4942V46.0976ZM71.8861 61.0682L72.5696 61.5031L72.5793 61.4878L72.5884 61.472L71.8861 61.0682ZM70.2821 62.8326L69.8232 62.165L69.813 62.172L69.8031 62.1793L70.2821 62.8326ZM64.3474 61.0682L63.6455 61.4728L63.6499 61.4803L64.3474 61.0682ZM55.6858 46.0441V45.234H54.2837L54.984 46.4487L55.6858 46.0441ZM56.9155 46.0441H57.7256V45.234H56.9155V46.0441ZM55.7927 67.8049L55.2068 67.2456L55.7927 67.8049ZM52.4778 68.1711C51.2027 68.1711 50.3279 67.8243 49.7357 67.2321L48.5901 68.3778C49.5663 69.3539 50.9014 69.7913 52.4778 69.7913V68.1711ZM49.7489 67.2456C49.185 66.6548 48.8502 65.7751 48.8502 64.49H47.23C47.23 66.0564 47.6438 67.3867 48.5769 68.3643L49.7489 67.2456ZM48.8502 64.49V34.8162H47.23V64.49H48.8502ZM48.8502 34.8162C48.8502 33.5066 49.2132 32.65 49.8161 32.0995L48.7236 30.903C47.6869 31.8497 47.23 33.203 47.23 34.8162H48.8502ZM49.8298 32.0867C50.4556 31.4881 51.3881 31.1351 52.7452 31.1351V29.5149C51.1082 29.5149 49.7237 29.9461 48.7099 30.9159L49.8298 32.0867ZM52.7452 31.1351C53.8957 31.1351 54.6919 31.3667 55.2213 31.7372L56.1504 30.4099C55.2539 29.7824 54.0898 29.5149 52.7452 29.5149V31.1351ZM55.2594 31.7624C55.8487 32.1271 56.4412 32.7834 57.0072 33.8156L58.4278 33.0366C57.7819 31.8588 57.02 30.9467 56.1122 30.3848L55.2594 31.7624ZM57.0098 33.8203L68.5051 54.4583L69.9205 53.6699L58.4253 33.0319L57.0098 33.8203ZM69.2128 53.254H67.3415V54.8742H69.2128V53.254ZM68.05 54.4569L79.4918 33.8189L78.0748 33.0333L66.633 53.6713L68.05 54.4569ZM79.4838 33.8329C80.091 32.7872 80.6902 32.1208 81.2565 31.7528L80.3735 30.3943C79.514 30.953 78.7587 31.855 78.0827 33.0193L79.4838 33.8329ZM81.2644 31.7476C81.8375 31.3655 82.6617 31.1351 83.8091 31.1351V29.5149C82.4614 29.5149 81.2895 29.7836 80.3656 30.3995L81.2644 31.7476ZM83.8091 31.1351C85.0865 31.1351 85.9329 31.4827 86.4846 32.0606L87.6565 30.9419C86.7112 29.9516 85.3833 29.5149 83.8091 29.5149V31.1351ZM86.5112 32.0873C87.0854 32.6354 87.4367 33.4963 87.4367 34.8162H89.0569C89.0569 33.2133 88.624 31.8642 87.6299 30.9153L86.5112 32.0873ZM87.4367 34.8162V64.49H89.0569V34.8162H87.4367ZM87.4367 64.49C87.4367 65.7751 87.1019 66.6548 86.538 67.2456L87.71 68.3643C88.6432 67.3867 89.0569 66.0564 89.0569 64.49H87.4367ZM86.538 67.2456C85.9899 67.8198 85.129 68.1711 83.8091 68.1711V69.7913C85.412 69.7913 86.7611 69.3584 87.71 68.3643L86.538 67.2456ZM83.8091 68.1711C82.534 68.1711 81.6592 67.8243 81.067 67.2321L79.9214 68.3778C80.8975 69.3539 82.2327 69.7913 83.8091 69.7913V68.1711ZM81.0802 67.2456C80.5163 66.6548 80.1815 65.7751 80.1815 64.49H78.5613C78.5613 66.0564 78.9751 67.3867 79.9082 68.3643L81.0802 67.2456ZM80.1815 64.49V46.0976H78.5613V64.49H80.1815ZM79.3714 46.9077H80.4942V45.2875H79.3714V46.9077ZM79.7919 45.6938L71.1838 60.6644L72.5884 61.472L81.1965 46.5014L79.7919 45.6938ZM71.2027 60.6333C70.7432 61.3553 70.2787 61.8518 69.8232 62.165L70.7411 63.5001C71.4262 63.0291 72.031 62.3494 72.5696 61.5031L71.2027 60.6333ZM69.8031 62.1793C69.4529 62.4361 68.9112 62.6106 68.09 62.6106V64.2308C69.1223 64.2308 70.042 64.0132 70.7612 63.4858L69.8031 62.1793ZM68.09 62.6106C67.3159 62.6106 66.758 62.4408 66.3568 62.165L65.4389 63.5001C66.1784 64.0085 67.0819 64.2308 68.09 64.2308V62.6106ZM66.3568 62.165C65.9092 61.8573 65.4663 61.3694 65.0448 60.6561L63.6499 61.4803C64.1552 62.3353 64.7459 63.0237 65.4389 63.5001L66.3568 62.165ZM65.0492 60.6636L56.3876 45.6395L54.984 46.4487L63.6455 61.4728L65.0492 60.6636ZM55.6858 46.8542H56.9155V45.234H55.6858V46.8542ZM56.1054 46.0441V64.49H57.7256V46.0441H56.1054ZM56.1054 64.49C56.1054 65.7751 55.7707 66.6548 55.2068 67.2456L56.3787 68.3643C57.3119 67.3867 57.7256 66.0564 57.7256 64.49H56.1054ZM55.2068 67.2456C54.6586 67.8198 53.7977 68.1711 52.4778 68.1711V69.7913C54.0807 69.7913 55.4298 69.3584 56.3787 68.3643L55.2068 67.2456Z" fill="url(#paint1_linear_699_638)" fill-opacity="0.34" mask="url(#path-2-inside-1_699_638)"/>
</g>
<defs>
<filter id="filter0_d_699_638" x="11.6575" y="30.325" width="78.2095" height="41.0865" filterUnits="userSpaceOnUse" color-interpolation-filters="sRGB">
<feFlood flood-opacity="0" result="BackgroundImageFix"/>
<feColorMatrix in="SourceAlpha" type="matrix" values="0 0 0 0 0 0 0 0 0 0 0 0 0 0 0 0 0 0 127 0" result="hardAlpha"/>
<feOffset dx="1.62019" dy="2.43029"/>
<feComposite in2="hardAlpha" operator="out"/>
<feColorMatrix type="matrix" values="0 0 0 0 0.854902 0 0 0 0 0.6 0 0 0 0 0.164706 0 0 0 1 0"/>
<feBlend mode="normal" in2="BackgroundImageFix" result="effect1_dropShadow_699_638"/>
<feBlend mode="normal" in="SourceGraphic" in2="effect1_dropShadow_699_638" result="shape"/>
</filter>
<linearGradient id="paint0_linear_699_638" x1="50" y1="24.5" x2="50" y2="77.5" gradientUnits="userSpaceOnUse">
<stop stop-color="#FFF100"/>
<stop offset="1" stop-color="#FCB21C"/>
</linearGradient>
<linearGradient id="paint1_linear_699_638" x1="50" y1="24.5" x2="50" y2="77.5" gradientUnits="userSpaceOnUse">
<stop stop-color="white"/>
<stop offset="1" stop-color="white" stop-opacity="0"/>
</linearGradient>
</defs>
</svg>
