<svg width="32" height="32" viewBox="0 0 32 32" fill="none" xmlns="http://www.w3.org/2000/svg">
<path d="M12.5746 6.64455C12.6381 5.71841 13.8195 5.37105 14.3742 6.11543L18.2819 11.3597C18.4562 11.5937 18.7242 11.7399 19.0153 11.7598L25.5401 12.2071C26.4662 12.2705 26.8136 13.4519 26.0692 14.0066L20.825 17.9143C20.5909 18.0887 20.4448 18.3566 20.4248 18.6478L19.9776 25.1725C19.9141 26.0987 18.7327 26.446 18.1781 25.7016L14.2704 20.4574C14.096 20.2234 13.828 20.0772 13.5369 20.0572L7.01212 19.61C6.08598 19.5465 5.73862 18.3651 6.483 17.8105L11.7273 13.9028C11.9613 13.7284 12.1075 13.4605 12.1274 13.1693L12.5746 6.64455Z" fill="url(#paint0_linear_2024_72)"/>
<defs>
<linearGradient id="paint0_linear_2024_72" x1="21.3811" y1="27.4016" x2="10.3354" y2="-10.1644" gradientUnits="userSpaceOnUse">
<stop stop-color="#FFEF5B"/>
<stop offset="1" stop-color="#F9B345"/>
</linearGradient>
</defs>
</svg>
