<svg width="54" height="55" viewBox="0 0 54 55" fill="none" xmlns="http://www.w3.org/2000/svg">
<path d="M33.6558 14.6318C35.1713 13.5594 37.2032 14.9511 36.7508 16.7518L34.644 25.1371C34.5018 25.7032 34.614 26.3032 34.9511 26.7797L39.9453 33.8373C41.0178 35.3528 39.626 37.3847 37.8254 36.9323L29.4401 34.8255C28.874 34.6833 28.274 34.7955 27.7975 35.1326L20.7399 40.1268C19.2243 41.1993 17.1925 39.8075 17.6449 38.0069L19.7516 29.6216C19.8939 29.0555 19.7817 28.4554 19.4445 27.979L14.4503 20.9213C13.3779 19.4058 14.7696 17.374 16.5703 17.8264L24.9556 19.9331C25.5217 20.0754 26.1217 19.9632 26.5982 19.626L33.6558 14.6318Z" fill="url(#paint0_linear_2024_73)"/>
<defs>
<linearGradient id="paint0_linear_2024_73" x1="18.4353" y1="44.6924" x2="52.5772" y2="-5.15295" gradientUnits="userSpaceOnUse">
<stop stop-color="#FFEF5B"/>
<stop offset="1" stop-color="#F9B345"/>
</linearGradient>
</defs>
</svg>
