<svg width="20" height="20" viewBox="0 0 20 20" fill="none" xmlns="http://www.w3.org/2000/svg">
<path d="M7.99391 4.36635C8.06298 3.62258 9.02007 3.36613 9.45178 3.97572L11.4622 6.81444C11.5979 7.0061 11.8106 7.12889 12.0444 7.15061L15.508 7.47229C16.2518 7.54137 16.5083 8.49846 15.8987 8.93017L13.0599 10.9406C12.8683 11.0763 12.7455 11.289 12.7238 11.5228L12.4021 14.9864C12.333 15.7302 11.3759 15.9866 10.9442 15.3771L8.93382 12.5383C8.7981 12.3467 8.58541 12.2239 8.35157 12.2022L4.88797 11.8805C4.14419 11.8114 3.88774 10.8543 4.49733 10.4226L7.33606 8.41221C7.52771 8.27648 7.6505 8.0638 7.67222 7.82996L7.99391 4.36635Z" fill="url(#paint0_linear_2024_71)"/>
<defs>
<linearGradient id="paint0_linear_2024_71" x1="13.1937" y1="16.8857" x2="6.90241" y2="-6.59373" gradientUnits="userSpaceOnUse">
<stop stop-color="#FFEF5B"/>
<stop offset="1" stop-color="#F9B345"/>
</linearGradient>
</defs>
</svg>
