<svg width="28" height="29" viewBox="0 0 28 29" fill="none" xmlns="http://www.w3.org/2000/svg">
<path d="M9.53794 8.04911C9.44371 7.1256 10.5492 6.58325 11.2219 7.22298L14.6809 10.5125C14.8924 10.7137 15.1812 10.8124 15.4715 10.7828L20.2203 10.2982C21.1438 10.204 21.6862 11.3095 21.0465 11.9822L17.7569 15.4412C17.5558 15.6527 17.4571 15.9415 17.4867 16.2318L17.9712 20.9806C18.0654 21.9041 16.9599 22.4465 16.2872 21.8067L12.8283 18.5172C12.6168 18.3161 12.328 18.2174 12.0376 18.247L7.28882 18.7315C6.36531 18.8257 5.82296 17.7202 6.46269 17.0475L9.75225 13.5885C9.95338 13.3771 10.0521 13.0883 10.0225 12.7979L9.53794 8.04911Z" fill="url(#paint0_linear_2050_58)"/>
<defs>
<linearGradient id="paint0_linear_2050_58" x1="19.4612" y1="23.0727" x2="5.35539" y2="-5.68022" gradientUnits="userSpaceOnUse">
<stop stop-color="#FFEF5B"/>
<stop offset="1" stop-color="#F9B345"/>
</linearGradient>
</defs>
</svg>
