<svg width="27" height="27" viewBox="0 0 27 27" fill="none" xmlns="http://www.w3.org/2000/svg">
<path d="M16.7116 7.06284C17.4694 6.52662 18.4853 7.22248 18.2591 8.12281L17.2303 12.2175C17.1592 12.5006 17.2153 12.8006 17.3839 13.0388L19.8226 16.4852C20.3588 17.243 19.663 18.2589 18.7626 18.0327L14.6679 17.0039C14.3849 16.9328 14.0849 16.9889 13.8466 17.1575L10.4002 19.5962C9.64247 20.1325 8.62655 19.4366 8.85275 18.5363L9.88153 14.4416C9.95265 14.1585 9.89655 13.8585 9.72797 13.6203L7.28921 10.1739C6.75298 9.41611 7.44884 8.40018 8.34917 8.62639L12.4439 9.65516C12.727 9.72628 13.027 9.67019 13.2652 9.5016L16.7116 7.06284Z" fill="url(#paint0_linear_2050_59)"/>
<defs>
<linearGradient id="paint0_linear_2050_59" x1="9.23376" y1="21.8693" x2="26.0744" y2="-2.71715" gradientUnits="userSpaceOnUse">
<stop stop-color="#FFEF5B"/>
<stop offset="1" stop-color="#F9B345"/>
</linearGradient>
</defs>
</svg>
