<svg width="165" height="49" viewBox="0 0 165 49" fill="none" xmlns="http://www.w3.org/2000/svg">
<path d="M163.699 42.9401C163.699 45.4732 161.605 47.525 159.014 47.525H5.68129C3.09171 47.525 0.989746 45.4732 0.989746 42.9401V6.37658C0.989746 3.84468 3.09171 1.78564 5.68129 1.78564H159.013C161.605 1.78564 163.698 3.84468 163.698 6.37658L163.699 42.9401Z" fill="#333333"/>
<path d="M158.519 1.841C161.341 1.841 163.637 4.07951 163.637 6.83049V42.4803C163.637 45.2313 161.341 47.4698 158.519 47.4698H6.16967C3.34815 47.4698 1.05224 45.2313 1.05224 42.4803V6.83049C1.05224 4.07951 3.34815 1.841 6.16967 1.841H158.519ZM158.519 0.888852H6.16967C2.8195 0.888852 0.0756836 3.56407 0.0756836 6.83049V42.4803C0.0756836 45.7467 2.8195 48.4219 6.16967 48.4219H158.519C161.869 48.4219 164.613 45.7467 164.613 42.4803V6.83049C164.613 3.56407 161.869 0.888852 158.519 0.888852Z" fill="#A6A6A6"/>
<path d="M36.7957 24.3987C36.7603 20.5687 40.0121 18.7054 40.1608 18.6187C38.3192 16.0008 35.4648 15.6431 34.4617 15.6146C32.0643 15.3686 29.7389 17.0133 28.5176 17.0133C27.272 17.0133 25.3914 15.6384 23.3645 15.6788C20.7563 15.718 18.3163 17.1903 16.978 19.4767C14.2163 24.1385 16.276 30.9892 18.922 34.7573C20.2456 36.6028 21.7923 38.6634 23.8167 38.5909C25.7973 38.5113 26.5371 37.3598 28.9271 37.3598C31.2953 37.3598 31.99 38.5909 34.0546 38.5445C36.1802 38.5113 37.5184 36.6908 38.7957 34.8286C40.3253 32.7134 40.9396 30.6303 40.964 30.5233C40.914 30.5067 36.8359 28.9892 36.7957 24.3987Z" fill="white"/>
<path d="M32.8955 13.1357C33.9608 11.8369 34.6896 10.0699 34.4873 8.27667C32.9455 8.34322 31.0174 9.31646 29.907 10.5868C28.9247 11.7062 28.0472 13.541 28.2739 15.2664C30.0058 15.3924 31.784 14.4144 32.8955 13.1357Z" fill="white"/>
<path d="M65.4578 38.3259H62.6899L61.1738 33.6807H55.9037L54.4594 38.3259H51.7646L56.986 22.5117H60.2109L65.4578 38.3259ZM60.7167 31.7319L59.3456 27.6025C59.2005 27.1806 58.9287 26.1872 58.5278 24.6233H58.479C58.3193 25.2959 58.0622 26.2894 57.7087 27.6025L56.3619 31.7319H60.7167Z" fill="white"/>
<path d="M78.885 32.4842C78.885 34.4235 78.3475 35.9565 77.2725 37.0818C76.3097 38.0836 75.114 38.5839 73.6868 38.5839C72.1462 38.5839 71.0396 38.0444 70.3656 36.9654H70.3168V42.9724H67.7184V30.6767C67.7184 29.4575 67.6854 28.2062 67.6221 26.9228H69.9073L70.0524 28.7303H70.1011C70.9677 27.3684 72.2828 26.6887 74.0476 26.6887C75.4272 26.6887 76.579 27.2199 77.5004 28.2835C78.4243 29.3482 78.885 30.748 78.885 32.4842ZM76.2377 32.5769C76.2377 31.467 75.9818 30.552 75.4675 29.8318C74.9056 29.0808 74.1512 28.7053 73.2054 28.7053C72.5643 28.7053 71.9817 28.9145 71.4613 29.3268C70.9396 29.7427 70.5984 30.2858 70.4387 30.9584C70.3583 31.2721 70.318 31.5288 70.318 31.7308V33.6321C70.318 34.4616 70.5789 35.1615 71.1005 35.7331C71.6222 36.3047 72.2998 36.5899 73.1335 36.5899C74.1122 36.5899 74.8739 36.2215 75.4187 35.4871C75.9647 34.7515 76.2377 33.7818 76.2377 32.5769Z" fill="white"/>
<path d="M92.3374 32.4842C92.3374 34.4235 91.7999 35.9565 90.7237 37.0818C89.7621 38.0836 88.5664 38.5839 87.1392 38.5839C85.5986 38.5839 84.492 38.0444 83.8192 36.9654H83.7704V42.9724H81.172V30.6767C81.172 29.4575 81.1391 28.2062 81.0757 26.9228H83.3609L83.506 28.7303H83.5547C84.4201 27.3684 85.7351 26.6887 87.5012 26.6887C88.8796 26.6887 90.0314 27.2199 90.9553 28.2835C91.8755 29.3482 92.3374 30.748 92.3374 32.4842ZM89.6901 32.5769C89.6901 31.467 89.433 30.552 88.9186 29.8318C88.3568 29.0808 87.6048 28.7053 86.6578 28.7053C86.0155 28.7053 85.4341 28.9145 84.9125 29.3268C84.3908 29.7427 84.0508 30.2858 83.8911 30.9584C83.8119 31.2721 83.7704 31.5288 83.7704 31.7308V33.6321C83.7704 34.4616 84.0313 35.1615 84.5505 35.7331C85.0721 36.3035 85.7498 36.5899 86.5859 36.5899C87.5646 36.5899 88.3263 36.2215 88.8711 35.4871C89.4171 34.7515 89.6901 33.7818 89.6901 32.5769Z" fill="white"/>
<path d="M107.377 33.8911C107.377 35.2363 106.898 36.3308 105.937 37.1757C104.88 38.099 103.409 38.5601 101.519 38.5601C99.7733 38.5601 98.3741 38.2321 97.3149 37.5749L97.917 35.4633C99.0578 36.1359 100.31 36.4733 101.673 36.4733C102.652 36.4733 103.414 36.2571 103.961 35.8269C104.506 35.3967 104.778 34.8192 104.778 34.0991C104.778 33.4574 104.553 32.9167 104.104 32.4782C103.656 32.0397 102.909 31.6321 101.866 31.2554C99.0261 30.2227 97.6075 28.71 97.6075 26.7207C97.6075 25.4207 98.1047 24.3548 99.1005 23.5253C100.093 22.6947 101.416 22.28 103.071 22.28C104.547 22.28 105.773 22.5307 106.752 23.031L106.102 25.0963C105.188 24.6115 104.155 24.369 102.998 24.369C102.084 24.369 101.37 24.5889 100.858 25.0262C100.425 25.4172 100.208 25.8937 100.208 26.4581C100.208 27.0832 100.456 27.6001 100.953 28.0065C101.386 28.382 102.172 28.7884 103.313 29.2269C104.708 29.7747 105.733 30.4153 106.393 31.1496C107.049 31.8817 107.377 32.7979 107.377 33.8911Z" fill="white"/>
<path d="M115.969 28.8241H113.105V34.3605C113.105 35.7687 113.609 36.4722 114.621 36.4722C115.085 36.4722 115.47 36.433 115.775 36.3545L115.847 38.2784C115.335 38.465 114.661 38.5589 113.826 38.5589C112.8 38.5589 111.998 38.2535 111.419 37.6439C110.843 37.0331 110.552 36.0087 110.552 34.5697V28.8217H108.846V26.9204H110.552V24.8325L113.105 24.0815V26.9204H115.969V28.8241Z" fill="white"/>
<path d="M128.892 32.5305C128.892 34.2833 128.377 35.7224 127.351 36.8477C126.275 38.0063 124.846 38.5838 123.066 38.5838C121.35 38.5838 119.983 38.0289 118.964 36.919C117.945 35.8091 117.436 34.4081 117.436 32.7195C117.436 30.9524 117.96 29.505 119.012 28.3797C120.061 27.2531 121.478 26.6899 123.258 26.6899C124.974 26.6899 126.355 27.2448 127.397 28.3559C128.394 29.4337 128.892 30.8253 128.892 32.5305ZM126.196 32.6125C126.196 31.5608 125.965 30.6589 125.498 29.9067C124.954 28.9964 124.175 28.5425 123.166 28.5425C122.121 28.5425 121.328 28.9976 120.783 29.9067C120.316 30.6601 120.086 31.5763 120.086 32.66C120.086 33.7117 120.316 34.6136 120.783 35.3647C121.345 36.2749 122.13 36.7289 123.142 36.7289C124.135 36.7289 124.913 36.2654 125.475 35.3409C125.954 34.5744 126.196 33.663 126.196 32.6125Z" fill="white"/>
<path d="M137.338 29.1509C137.081 29.1045 136.806 29.0808 136.519 29.0808C135.605 29.0808 134.898 29.4171 134.401 30.0908C133.968 30.685 133.751 31.436 133.751 32.3427V38.3259H131.154L131.178 30.5139C131.178 29.1996 131.145 28.0029 131.081 26.9239H133.344L133.439 29.1057H133.511C133.785 28.3559 134.218 27.7522 134.81 27.2995C135.389 26.8919 136.014 26.6887 136.688 26.6887C136.928 26.6887 137.145 26.7053 137.338 26.735V29.1509Z" fill="white"/>
<path d="M148.959 32.0849C148.959 32.5388 148.929 32.9215 148.864 33.234H141.069C141.099 34.3605 141.476 35.2221 142.2 35.8162C142.857 36.3474 143.706 36.6136 144.75 36.6136C145.904 36.6136 146.957 36.4342 147.904 36.0741L148.311 37.8328C147.204 38.3034 145.898 38.5375 144.39 38.5375C142.576 38.5375 141.153 38.017 140.117 36.9772C139.083 35.9374 138.565 34.5412 138.565 32.7896C138.565 31.07 139.047 29.6381 140.011 28.4961C141.02 27.2769 142.384 26.6673 144.1 26.6673C145.786 26.6673 147.062 27.2769 147.928 28.4961C148.614 29.4646 148.959 30.6625 148.959 32.0849ZM146.482 31.4277C146.499 30.6767 146.329 30.0279 145.977 29.4801C145.527 28.7754 144.836 28.4236 143.906 28.4236C143.057 28.4236 142.366 28.7671 141.838 29.4563C141.405 30.0041 141.148 30.6613 141.069 31.4265H146.482V31.4277Z" fill="white"/>
<path d="M59.8584 12.7828C59.8584 14.1815 59.4282 15.2344 58.5689 15.9414C57.7731 16.5938 56.642 16.9206 55.177 16.9206C54.4506 16.9206 53.829 16.8897 53.3086 16.8279V9.18578C53.9875 9.07883 54.7187 9.02417 55.5085 9.02417C56.904 9.02417 57.9559 9.32006 58.6652 9.91185C59.4599 10.5809 59.8584 11.5375 59.8584 12.7828ZM58.5116 12.8173C58.5116 11.9106 58.2654 11.2154 57.7731 10.7306C57.2807 10.247 56.5616 10.0045 55.6146 10.0045C55.2124 10.0045 54.8699 10.0307 54.5859 10.0853V15.8951C54.7431 15.9188 55.0308 15.9295 55.4488 15.9295C56.4263 15.9295 57.1807 15.6645 57.7121 15.1345C58.2435 14.6046 58.5116 13.8321 58.5116 12.8173Z" fill="white"/>
<path d="M66.9993 14.0045C66.9993 14.866 66.747 15.5719 66.2424 16.1256C65.7134 16.6949 65.0126 16.9789 64.1375 16.9789C63.2941 16.9789 62.6226 16.7067 62.1216 16.1601C61.6219 15.6147 61.3721 14.9266 61.3721 14.0972C61.3721 13.2297 61.6292 12.5179 62.146 11.9653C62.6628 11.4127 63.3575 11.1359 64.2326 11.1359C65.076 11.1359 65.7536 11.408 66.2668 11.9534C66.7543 12.4834 66.9993 13.1679 66.9993 14.0045ZM65.6744 14.0449C65.6744 13.528 65.5599 13.0847 65.3319 12.7152C65.0638 12.2683 64.6823 12.0449 64.1863 12.0449C63.6732 12.0449 63.2831 12.2683 63.015 12.7152C62.7859 13.0847 62.6725 13.5351 62.6725 14.0675C62.6725 14.5844 62.7871 15.0276 63.015 15.3972C63.2917 15.844 63.6768 16.0674 64.1741 16.0674C64.6616 16.0674 65.0443 15.8405 65.3198 15.3853C65.5562 15.0086 65.6744 14.5618 65.6744 14.0449Z" fill="white"/>
<path d="M76.5744 11.2499L74.7767 16.8517H73.6066L72.8619 14.4191C72.673 13.8119 72.5194 13.2082 72.4 12.6093H72.3768C72.2659 13.2249 72.1124 13.8274 71.9149 14.4191L71.1239 16.8517H69.9405L68.25 11.2499H69.5626L70.2123 13.9129C70.3695 14.5427 70.4987 15.1428 70.6023 15.7109H70.6254C70.7205 15.2427 70.8777 14.6461 71.0995 13.9248L71.9149 11.2511H72.9558L73.737 13.8678C73.9259 14.5059 74.0795 15.1203 74.1977 15.712H74.2331C74.3196 15.1357 74.45 14.5213 74.6231 13.8678L75.3202 11.2511H76.5744V11.2499Z" fill="white"/>
<path d="M83.1962 16.8517H81.9189V13.6433C81.9189 12.6546 81.5338 12.1602 80.7611 12.1602C80.382 12.1602 80.0761 12.2957 79.8384 12.5678C79.6032 12.84 79.4838 13.1608 79.4838 13.528V16.8506H78.2065V12.8506C78.2065 12.3587 78.1906 11.8251 78.1602 11.2476H79.2827L79.3424 12.1234H79.3777C79.5264 11.8513 79.7482 11.6267 80.0395 11.4472C80.3857 11.2381 80.7732 11.1323 81.1974 11.1323C81.7337 11.1323 82.1797 11.3011 82.5344 11.6397C82.9756 12.0545 83.1962 12.6736 83.1962 13.4959V16.8517Z" fill="white"/>
<path d="M86.7189 16.8518H85.4429V8.67963H86.7189V16.8518Z" fill="white"/>
<path d="M94.238 14.0045C94.238 14.8661 93.9857 15.5719 93.4812 16.1257C92.9522 16.6949 92.2502 16.9789 91.3763 16.9789C90.5317 16.9789 89.8601 16.7068 89.3604 16.1602C88.8607 15.6147 88.6108 14.9267 88.6108 14.0972C88.6108 13.2298 88.868 12.5179 89.3848 11.9654C89.9015 11.4128 90.5963 11.1359 91.4701 11.1359C92.3148 11.1359 92.9912 11.4081 93.5055 11.9535C93.993 12.4835 94.238 13.168 94.238 14.0045ZM92.912 14.0449C92.912 13.528 92.7974 13.0848 92.5695 12.7152C92.3026 12.2684 91.9199 12.045 91.425 12.045C90.9107 12.045 90.5207 12.2684 90.2538 12.7152C90.0246 13.0848 89.9113 13.5352 89.9113 14.0675C89.9113 14.5845 90.0259 15.0277 90.2538 15.3973C90.5304 15.8441 90.9156 16.0675 91.4129 16.0675C91.9004 16.0675 92.2819 15.8405 92.5573 15.3854C92.795 15.0087 92.912 14.5619 92.912 14.0449Z" fill="white"/>
<path d="M100.42 16.8517H99.2735L99.1784 16.2065H99.1431C98.7506 16.721 98.1912 16.9789 97.4648 16.9789C96.9224 16.9789 96.4836 16.8089 96.1534 16.4715C95.8535 16.1649 95.7036 15.7834 95.7036 15.3307C95.7036 14.6462 95.9961 14.1245 96.5848 13.7633C97.1723 13.402 97.9986 13.2249 99.0626 13.2333V13.1287C99.0626 12.3907 98.6653 12.0224 97.8694 12.0224C97.3027 12.0224 96.803 12.1614 96.3715 12.4371L96.1119 11.6195C96.6457 11.2975 97.3051 11.1359 98.0827 11.1359C99.5843 11.1359 100.337 11.9083 100.337 13.4531V15.516C100.337 16.0757 100.366 16.5214 100.42 16.8517ZM99.0943 14.9266V14.0627C97.6854 14.0389 96.9809 14.4156 96.9809 15.1916C96.9809 15.484 97.0614 15.7026 97.2259 15.8488C97.3904 15.9949 97.6001 16.0674 97.8499 16.0674C98.1302 16.0674 98.3923 15.9807 98.6312 15.8084C98.8713 15.6349 99.0187 15.415 99.0736 15.1453C99.087 15.0847 99.0943 15.011 99.0943 14.9266Z" fill="white"/>
<path d="M107.678 16.8517H106.544L106.485 15.9521H106.449C106.087 16.6366 105.471 16.9788 104.604 16.9788C103.912 16.9788 103.335 16.7138 102.878 16.1839C102.421 15.6539 102.193 14.9658 102.193 14.1209C102.193 13.2142 102.441 12.4798 102.938 11.9189C103.419 11.3961 104.009 11.1346 104.711 11.1346C105.483 11.1346 106.023 11.3878 106.33 11.8952H106.354V8.67957H107.633V15.3425C107.633 15.888 107.647 16.3906 107.678 16.8517ZM106.354 14.4893V13.5553C106.354 13.3937 106.342 13.2629 106.319 13.1631C106.247 12.8637 106.092 12.6117 105.857 12.4085C105.619 12.2053 105.333 12.1031 105.003 12.1031C104.526 12.1031 104.153 12.2873 103.879 12.6569C103.607 13.0265 103.469 13.4982 103.469 14.0746C103.469 14.6283 103.6 15.0775 103.862 15.4233C104.139 15.7917 104.512 15.9759 104.978 15.9759C105.398 15.9759 105.733 15.8226 105.987 15.5148C106.234 15.2308 106.354 14.8886 106.354 14.4893Z" fill="white"/>
<path d="M118.602 14.0045C118.602 14.8661 118.35 15.5719 117.845 16.1257C117.316 16.6949 116.617 16.9789 115.741 16.9789C114.898 16.9789 114.227 16.7068 113.725 16.1602C113.225 15.6147 112.975 14.9267 112.975 14.0972C112.975 13.2298 113.232 12.5179 113.749 11.9654C114.266 11.4128 114.961 11.1359 115.837 11.1359C116.679 11.1359 117.358 11.4081 117.87 11.9535C118.357 12.4835 118.602 13.168 118.602 14.0045ZM117.279 14.0449C117.279 13.528 117.164 13.0848 116.936 12.7152C116.667 12.2684 116.287 12.045 115.789 12.045C115.277 12.045 114.887 12.2684 114.618 12.7152C114.389 13.0848 114.276 13.5352 114.276 14.0675C114.276 14.5845 114.39 15.0277 114.618 15.3973C114.895 15.8441 115.28 16.0675 115.777 16.0675C116.265 16.0675 116.649 15.8405 116.924 15.3854C117.159 15.0087 117.279 14.5619 117.279 14.0449Z" fill="white"/>
<path d="M125.47 16.8517H124.194V13.6433C124.194 12.6546 123.809 12.1602 123.035 12.1602C122.656 12.1602 122.35 12.2957 122.113 12.5678C121.877 12.84 121.759 13.1608 121.759 13.528V16.8506H120.48V12.8506C120.48 12.3587 120.466 11.8251 120.435 11.2476H121.556L121.616 12.1234H121.651C121.801 11.8513 122.023 11.6267 122.313 11.4472C122.661 11.2381 123.047 11.1323 123.472 11.1323C124.007 11.1323 124.453 11.3011 124.808 11.6397C125.251 12.0545 125.47 12.6736 125.47 13.4959V16.8517Z" fill="white"/>
<path d="M134.066 12.1827H132.66V14.904C132.66 15.5956 132.909 15.9414 133.404 15.9414C133.633 15.9414 133.824 15.9224 133.973 15.8832L134.006 16.8279C133.754 16.9206 133.423 16.9669 133.014 16.9669C132.51 16.9669 132.117 16.8172 131.833 16.5177C131.548 16.2183 131.407 15.7144 131.407 15.0074V12.1827H130.567V11.2499H131.407V10.2232L132.658 9.8548V11.2487H134.065V12.1827H134.066Z" fill="white"/>
<path d="M140.828 16.8517H139.549V13.667C139.549 12.6628 139.164 12.1602 138.393 12.1602C137.8 12.1602 137.396 12.4513 137.174 13.0336C137.136 13.156 137.114 13.3057 137.114 13.4816V16.8505H135.838V8.67957H137.114V12.0556H137.138C137.541 11.4412 138.117 11.1346 138.864 11.1346C139.393 11.1346 139.831 11.3034 140.178 11.6421C140.611 12.0639 140.828 12.6914 140.828 13.5208V16.8517Z" fill="white"/>
<path d="M147.803 13.7858C147.803 14.0092 147.786 14.1969 147.756 14.3502H143.925C143.942 14.904 144.125 15.3259 144.48 15.6182C144.804 15.8796 145.222 16.0103 145.734 16.0103C146.301 16.0103 146.817 15.9224 147.283 15.7453L147.483 16.6104C146.938 16.841 146.297 16.9562 145.555 16.9562C144.665 16.9562 143.964 16.7008 143.457 16.1898C142.948 15.6788 142.695 14.9931 142.695 14.1328C142.695 13.2879 142.931 12.5844 143.405 12.0235C143.899 11.4246 144.569 11.1251 145.413 11.1251C146.24 11.1251 146.867 11.4246 147.291 12.0235C147.634 12.4988 147.803 13.087 147.803 13.7858ZM146.584 13.4637C146.594 13.0942 146.51 12.7757 146.337 12.5071C146.115 12.1613 145.778 11.9878 145.321 11.9878C144.904 11.9878 144.564 12.1566 144.304 12.4953C144.092 12.765 143.967 13.087 143.925 13.4637H146.584Z" fill="white"/>
</svg>
