<svg width="165" height="49" viewBox="0 0 165 49" fill="none" xmlns="http://www.w3.org/2000/svg">
<path d="M158.839 48.422H6.69889C3.35333 48.422 0.613281 45.7468 0.613281 42.4804V6.83055C0.613281 3.56414 3.35333 0.888917 6.69889 0.888917H158.839C162.185 0.888917 164.925 3.56414 164.925 6.83055V42.4804C164.925 45.7468 162.185 48.422 158.839 48.422Z" fill="#333333"/>
<path d="M158.839 1.84106C161.657 1.84106 163.95 4.07958 163.95 6.83055V42.4804C163.95 45.2313 161.657 47.4699 158.839 47.4699H6.69889C3.88125 47.4699 1.5885 45.2313 1.5885 42.4804V6.83055C1.5885 4.07958 3.88125 1.84106 6.69889 1.84106H158.839ZM158.839 0.888917H6.69889C3.35333 0.888917 0.613281 3.56414 0.613281 6.83055V42.4804C0.613281 45.7468 3.35333 48.422 6.69889 48.422H158.839C162.185 48.422 164.925 45.7468 164.925 42.4804V6.83055C164.925 3.56414 162.185 0.888917 158.839 0.888917Z" fill="#A6A6A6"/>
<path d="M58.3257 13.0619C58.3257 14.0541 58.0214 14.8488 57.422 15.4415C56.7328 16.1441 55.8352 16.4976 54.7352 16.4976C53.6839 16.4976 52.7863 16.1382 52.0499 15.4296C51.312 14.7107 50.9438 13.8283 50.9438 12.7722C50.9438 11.7161 51.312 10.8338 52.0499 10.1208C52.7863 9.40628 53.6839 9.04681 54.7352 9.04681C55.2585 9.04681 55.7576 9.15228 56.2338 9.34835C56.7084 9.54591 57.0949 9.81328 57.3748 10.143L56.7389 10.7699C56.2505 10.2069 55.5856 9.92915 54.7352 9.92915C53.9684 9.92915 53.3035 10.1906 52.7391 10.7179C52.1807 11.2467 51.9008 11.9315 51.9008 12.7722C51.9008 13.613 52.1807 14.3037 52.7391 14.8325C53.3035 15.3539 53.9684 15.6212 54.7352 15.6212C55.5491 15.6212 56.2338 15.3539 56.7739 14.8265C57.1299 14.4775 57.3322 13.9962 57.3855 13.3812H54.7352V12.5227H58.2709C58.3135 12.7083 58.3257 12.8881 58.3257 13.0619Z" fill="white" stroke="white" stroke-width="0.14151" stroke-miterlimit="10"/>
<path d="M63.9348 10.085H60.6136V12.3429H63.6077V13.2014H60.6136V15.4593H63.9348V16.3342H59.6733V9.21014H63.9348V10.085Z" fill="white" stroke="white" stroke-width="0.14151" stroke-miterlimit="10"/>
<path d="M67.8944 16.3342H66.9541V10.085H64.917V9.21014H69.9331V10.085H67.8944V16.3342Z" fill="white" stroke="white" stroke-width="0.14151" stroke-miterlimit="10"/>
<path d="M73.563 16.3342V9.21014H74.5017V16.3342H73.563Z" fill="white" stroke="white" stroke-width="0.14151" stroke-miterlimit="10"/>
<path d="M78.6624 16.3342H77.7298V10.085H75.6851V9.21014H80.7072V10.085H78.6624V16.3342Z" fill="white" stroke="white" stroke-width="0.14151" stroke-miterlimit="10"/>
<path d="M90.2039 15.4177C89.4843 16.1381 88.5928 16.4976 87.5293 16.4976C86.4597 16.4976 85.5682 16.1381 84.8486 15.4177C84.1305 14.6987 83.7729 13.8164 83.7729 12.7722C83.7729 11.7279 84.1305 10.8456 84.8486 10.1266C85.5682 9.40622 86.4597 9.04675 87.5293 9.04675C88.5867 9.04675 89.4782 9.40622 90.1978 10.1326C90.922 10.8575 91.2796 11.7339 91.2796 12.7722C91.2796 13.8164 90.922 14.6987 90.2039 15.4177ZM85.5439 14.8205C86.0855 15.3538 86.7442 15.6212 87.5293 15.6212C88.3082 15.6212 88.9731 15.3538 89.5086 14.8205C90.0487 14.2873 90.3226 13.6025 90.3226 12.7722C90.3226 11.9418 90.0487 11.257 89.5086 10.7238C88.9731 10.1905 88.3082 9.92314 87.5293 9.92314C86.7442 9.92314 86.0855 10.1905 85.5439 10.7238C85.0038 11.257 84.7299 11.9418 84.7299 12.7722C84.7299 13.6025 85.0038 14.2873 85.5439 14.8205Z" fill="white" stroke="white" stroke-width="0.14151" stroke-miterlimit="10"/>
<path d="M92.5986 16.3342V9.21014H93.7397L97.2876 14.7507H97.3287L97.2876 13.3812V9.21014H98.2263V16.3342H97.2465L93.5313 10.5203H93.4902L93.5313 11.8958V16.3342H92.5986Z" fill="white" stroke="white" stroke-width="0.14151" stroke-miterlimit="10"/>
<path d="M83.5419 26.738C80.6832 26.738 78.3478 28.8622 78.3478 31.7929C78.3478 34.6998 80.6832 36.8462 83.5419 36.8462C86.4067 36.8462 88.742 34.6998 88.742 31.7929C88.742 28.8622 86.4067 26.738 83.5419 26.738ZM83.5419 34.8558C81.9733 34.8558 80.6238 33.5917 80.6238 31.7929C80.6238 29.9703 81.9733 28.7285 83.5419 28.7285C85.1104 28.7285 86.466 29.9703 86.466 31.7929C86.466 33.5917 85.1104 34.8558 83.5419 34.8558ZM72.2089 26.738C69.3441 26.738 67.0149 28.8622 67.0149 31.7929C67.0149 34.6998 69.3441 36.8462 72.2089 36.8462C75.0722 36.8462 77.403 34.6998 77.403 31.7929C77.403 28.8622 75.0722 26.738 72.2089 26.738ZM72.2089 34.8558C70.6389 34.8558 69.2848 33.5917 69.2848 31.7929C69.2848 29.9703 70.6389 28.7285 72.2089 28.7285C73.7775 28.7285 75.127 29.9703 75.127 31.7929C75.127 33.5917 73.7775 34.8558 72.2089 34.8558ZM58.7232 28.2873V30.4352H63.9766C63.823 31.6354 63.4122 32.5178 62.7823 33.1327C62.0156 33.8754 60.8213 34.6998 58.7232 34.6998C55.4903 34.6998 52.9586 32.1523 52.9586 28.9959C52.9586 25.8394 55.4903 23.2919 58.7232 23.2919C60.4713 23.2919 61.7432 23.9588 62.6819 24.8233L64.2322 23.3097C62.9193 22.0857 61.1727 21.1455 58.7232 21.1455C54.2899 21.1455 50.564 24.6674 50.564 28.9959C50.564 33.3243 54.2899 36.8462 58.7232 36.8462C61.1194 36.8462 62.9193 36.0798 64.3342 34.6419C65.7841 33.2263 66.2359 31.2358 66.2359 29.6286C66.2359 29.1295 66.1933 28.6705 66.1173 28.2873H58.7232ZM113.868 29.9525C113.44 28.8221 112.121 26.738 109.435 26.738C106.772 26.738 104.555 28.7864 104.555 31.7929C104.555 34.6241 106.749 36.8462 109.69 36.8462C112.068 36.8462 113.44 35.4306 114.005 34.6062L112.24 33.458C111.651 34.2988 110.85 34.8558 109.69 34.8558C108.539 34.8558 107.712 34.3403 107.183 33.3243L114.107 30.5273L113.868 29.9525ZM106.809 31.6354C106.749 29.6866 108.359 28.6884 109.512 28.6884C110.416 28.6884 111.183 29.1295 111.438 29.7608L106.809 31.6354ZM101.181 36.5388H103.457V21.6847H101.181V36.5388ZM97.4536 27.864H97.3775C96.8663 27.2728 95.8911 26.738 94.6557 26.738C92.0632 26.738 89.6929 28.9602 89.6929 31.8092C89.6929 34.6419 92.0632 36.8462 94.6557 36.8462C95.8911 36.8462 96.8663 36.307 97.3775 35.698H97.4536V36.4229C97.4536 38.3554 96.3962 39.3937 94.6907 39.3937C93.3001 39.3937 92.4375 38.4133 92.0815 37.5889L90.1022 38.3955C90.6727 39.7354 92.1834 41.3842 94.6907 41.3842C97.3592 41.3842 99.6109 39.8512 99.6109 36.1214V27.0455H97.4536V27.864ZM94.8505 34.8558C93.2819 34.8558 91.9689 33.5739 91.9689 31.8092C91.9689 30.0282 93.2819 28.7285 94.8505 28.7285C96.3962 28.7285 97.6148 30.0282 97.6148 31.8092C97.6148 33.5739 96.3962 34.8558 94.8505 34.8558ZM124.524 21.6847H119.08V36.5388H121.35V30.9105H124.524C127.045 30.9105 129.517 29.1295 129.517 26.2969C129.517 23.4657 127.039 21.6847 124.524 21.6847ZM124.583 28.8443H121.35V23.7509H124.583C126.278 23.7509 127.246 25.1249 127.246 26.2969C127.246 27.4466 126.278 28.8443 124.583 28.8443ZM138.615 26.7098C136.975 26.7098 135.27 27.4169 134.568 28.984L136.583 29.8084C137.016 28.984 137.813 28.7166 138.656 28.7166C139.834 28.7166 141.028 29.4073 141.046 30.6268V30.7828C140.636 30.5511 139.756 30.2079 138.674 30.2079C136.505 30.2079 134.294 31.374 134.294 33.5501C134.294 35.5406 136.071 36.8225 138.069 36.8225C139.596 36.8225 140.439 36.1496 140.969 35.3668H141.046V36.515H143.239V30.817C143.239 28.1833 141.224 26.7098 138.615 26.7098ZM138.341 34.8498C137.599 34.8498 136.564 34.4904 136.564 33.5917C136.564 32.442 137.854 32.0008 138.971 32.0008C139.971 32.0008 140.439 32.2162 141.046 32.4999C140.868 33.8754 139.656 34.8498 138.341 34.8498ZM151.226 27.0351L148.617 33.4744H148.539L145.842 27.0351H143.394L147.447 36.0337L145.134 41.041H147.506L153.752 27.0351H151.226ZM130.765 36.5388H133.041V21.6847H130.765V36.5388Z" fill="white"/>
<path d="M13.314 9.8475C12.9564 10.2129 12.7495 10.7818 12.7495 11.5186V37.7984C12.7495 38.5352 12.9564 39.1041 13.314 39.4695L13.4022 39.5497L28.4854 24.8293V24.4818L13.4022 9.76135L13.314 9.8475Z" fill="url(#paint0_linear_342_678)"/>
<path d="M33.507 29.7386L28.4849 24.8293V24.4817L33.5131 19.5724L33.6257 19.6363L39.5804 22.9443C41.2799 23.8831 41.2799 25.4279 39.5804 26.3726L33.6257 29.6747L33.507 29.7386Z" fill="url(#paint1_linear_342_678)"/>
<path d="M33.6262 29.6747L28.4854 24.6555L13.314 39.4695C13.8784 40.0488 14.7989 40.1186 15.8456 39.5393L33.6262 29.6747Z" fill="url(#paint2_linear_342_678)"/>
<path d="M33.6262 19.6363L15.8456 9.77172C14.7989 9.19835 13.8784 9.26817 13.314 9.84748L28.4854 24.6555L33.6262 19.6363Z" fill="url(#paint3_linear_342_678)"/>
<defs>
<linearGradient id="paint0_linear_342_678" x1="27.1462" y1="38.0721" x2="7.2089" y2="17.6518" gradientUnits="userSpaceOnUse">
<stop stop-color="#00A0FF"/>
<stop offset="0.0066" stop-color="#00A1FF"/>
<stop offset="0.2601" stop-color="#00BEFF"/>
<stop offset="0.5122" stop-color="#00D2FF"/>
<stop offset="0.7604" stop-color="#00DFFF"/>
<stop offset="1" stop-color="#00E3FF"/>
</linearGradient>
<linearGradient id="paint1_linear_342_678" x1="41.7934" y1="24.6539" x2="12.3428" y2="24.6539" gradientUnits="userSpaceOnUse">
<stop stop-color="#FFE000"/>
<stop offset="0.4087" stop-color="#FFBD00"/>
<stop offset="0.7754" stop-color="#FFA500"/>
<stop offset="1" stop-color="#FF9C00"/>
</linearGradient>
<linearGradient id="paint2_linear_342_678" x1="30.8308" y1="21.927" x2="3.79422" y2="-5.76472" gradientUnits="userSpaceOnUse">
<stop stop-color="#FF3A44"/>
<stop offset="1" stop-color="#C31162"/>
</linearGradient>
<linearGradient id="paint3_linear_342_678" x1="9.495" y1="48.2127" x2="21.568" y2="35.8472" gradientUnits="userSpaceOnUse">
<stop stop-color="#32A071"/>
<stop offset="0.0685" stop-color="#2DA771"/>
<stop offset="0.4762" stop-color="#15CF74"/>
<stop offset="0.8009" stop-color="#06E775"/>
<stop offset="1" stop-color="#00F076"/>
</linearGradient>
</defs>
</svg>
