<svg width="32" height="32" viewBox="0 0 32 32" fill="none" xmlns="http://www.w3.org/2000/svg">
<path d="M12.0385 6.99684C12.102 6.07071 13.2834 5.72334 13.838 6.46772L17.7457 11.712C17.9201 11.946 18.188 12.0922 18.4792 12.1121L25.004 12.5594C25.9301 12.6228 26.2775 13.8042 25.5331 14.3589L20.2888 18.2666C20.0548 18.441 19.9086 18.7089 19.8887 19.0001L19.4414 25.5248C19.378 26.451 18.1966 26.7983 17.6419 26.0539L13.7342 20.8097C13.5598 20.5757 13.2919 20.4295 13.0007 20.4095L6.47599 19.9623C5.54985 19.8988 5.20249 18.7174 5.94687 18.1628L11.1911 14.2551C11.4252 14.0807 11.5713 13.8128 11.5913 13.5216L12.0385 6.99684Z" fill="url(#paint0_linear_2009_420)"/>
<defs>
<linearGradient id="paint0_linear_2009_420" x1="20.8449" y1="27.7539" x2="9.79927" y2="-9.81207" gradientUnits="userSpaceOnUse">
<stop stop-color="#FFEF5B"/>
<stop offset="1" stop-color="#F9B345"/>
</linearGradient>
</defs>
</svg>
