<svg width="58" height="58" viewBox="0 0 58 58" fill="none" xmlns="http://www.w3.org/2000/svg">
<path d="M19.8139 15.7036C19.5411 13.9291 21.6232 12.7729 22.9853 13.9425L30.7166 20.5809C31.1448 20.9486 31.7123 21.1108 32.2702 21.0251L42.3422 19.4772C44.1167 19.2045 45.2728 21.2865 44.1033 22.6486L37.4649 30.3799C37.0972 30.8082 36.9349 31.3757 37.0207 31.9336L38.5686 42.0055C38.8413 43.78 36.7593 44.9362 35.3971 43.7666L27.6659 37.1282C27.2376 36.7605 26.6701 36.5983 26.1122 36.684L16.0402 38.2319C14.2657 38.5046 13.1096 36.4226 14.2791 35.0605L20.9175 27.3292C21.2852 26.901 21.4475 26.3335 21.3618 25.7756L19.8139 15.7036Z" fill="url(#paint0_linear_2009_416)"/>
<defs>
<linearGradient id="paint0_linear_2009_416" x1="41.7949" y1="45.8206" x2="9.84761" y2="-11.7114" gradientUnits="userSpaceOnUse">
<stop stop-color="#FFEF5B"/>
<stop offset="1" stop-color="#F9B345"/>
</linearGradient>
</defs>
</svg>
