<svg width="55" height="54" viewBox="0 0 55 54" fill="none" xmlns="http://www.w3.org/2000/svg">
<path d="M34.1372 14.5129C35.6528 13.4405 37.6846 14.8322 37.2322 16.6329L35.1255 25.0182C34.9832 25.5843 35.0954 26.1843 35.4326 26.6608L40.4268 33.7184C41.4992 35.2339 40.1075 37.2658 38.3068 36.8134L29.9215 34.7066C29.3554 34.5644 28.7554 34.6766 28.2789 35.0137L21.2213 40.0079C19.7057 41.0804 17.6739 39.6886 18.1263 37.888L20.2331 29.5027C20.3753 28.9366 20.2631 28.3365 19.926 27.8601L14.9318 20.8024C13.8593 19.2869 15.251 17.2551 17.0517 17.7075L25.437 19.8142C26.0031 19.9565 26.6031 19.8443 27.0796 19.5071L34.1372 14.5129Z" fill="url(#paint0_linear_2009_418)"/>
<defs>
<linearGradient id="paint0_linear_2009_418" x1="18.9168" y1="44.5735" x2="53.0587" y2="-5.27185" gradientUnits="userSpaceOnUse">
<stop stop-color="#FFEF5B"/>
<stop offset="1" stop-color="#F9B345"/>
</linearGradient>
</defs>
</svg>
