<svg width="58" height="58" viewBox="0 0 58 58" fill="none" xmlns="http://www.w3.org/2000/svg">
<path d="M19.2406 15.6457C18.9679 13.8712 21.0499 12.7151 22.412 13.8846L30.1433 20.523C30.5716 20.8907 31.1391 21.053 31.697 20.9672L41.769 19.4193C43.5434 19.1466 44.6996 21.2286 43.53 22.5908L36.8916 30.322C36.5239 30.7503 36.3617 31.3178 36.4474 31.8757L37.9953 41.9477C38.268 43.7222 36.186 44.8783 34.8239 43.7088L27.0926 37.0704C26.6644 36.7027 26.0969 36.5404 25.539 36.6261L15.467 38.174C13.6925 38.4468 12.5363 36.3647 13.7059 35.0026L20.3443 27.2713C20.712 26.8431 20.8743 26.2756 20.7885 25.7177L19.2406 15.6457Z" fill="url(#paint0_linear_2009_417)"/>
<defs>
<linearGradient id="paint0_linear_2009_417" x1="41.2217" y1="45.7628" x2="9.27436" y2="-11.7692" gradientUnits="userSpaceOnUse">
<stop stop-color="#FFEF5B"/>
<stop offset="1" stop-color="#F9B345"/>
</linearGradient>
</defs>
</svg>
