<svg width="19" height="20" viewBox="0 0 19 20" fill="none" xmlns="http://www.w3.org/2000/svg">
<path d="M7.27418 4.93471C7.34326 4.19094 8.30035 3.93449 8.73206 4.54407L10.7424 7.3828C10.8782 7.57446 11.0909 7.69725 11.3247 7.71897L14.7883 8.04065C15.5321 8.10973 15.7885 9.06682 15.1789 9.49853L12.3402 11.5089C12.1486 11.6446 12.0258 11.8573 12.004 12.0912L11.6824 15.5548C11.6133 16.2985 10.6562 16.555 10.2245 15.9454L8.2141 13.1067C8.07837 12.915 7.86569 12.7922 7.63185 12.7705L4.16824 12.4488C3.42447 12.3798 3.16801 11.4227 3.7776 10.991L6.61633 8.98057C6.80798 8.84484 6.93078 8.63216 6.95249 8.39832L7.27418 4.93471Z" fill="url(#paint0_linear_2009_419)"/>
<defs>
<linearGradient id="paint0_linear_2009_419" x1="12.474" y1="17.454" x2="6.18269" y2="-6.02537" gradientUnits="userSpaceOnUse">
<stop stop-color="#FFEF5B"/>
<stop offset="1" stop-color="#F9B345"/>
</linearGradient>
</defs>
</svg>
