<svg width="62" height="61" viewBox="0 0 62 61" fill="none" xmlns="http://www.w3.org/2000/svg">
<path d="M30.1722 8.64568C31.1737 6.42441 34.3981 6.64777 35.0837 8.98592L38.9754 22.2572C39.191 22.9923 39.7169 23.5965 40.4153 23.9114L53.0232 29.5958C55.2444 30.5973 55.0211 33.8217 52.6829 34.5073L39.4117 38.399C38.6766 38.6146 38.0723 39.1406 37.7575 39.8389L32.073 52.4468C31.0715 54.668 27.8472 54.4447 27.1615 52.1065L23.2698 38.8353C23.0543 38.1002 22.5283 37.4959 21.8299 37.1811L9.22208 31.4966C7.00081 30.4951 7.22417 27.2708 9.56231 26.5851L22.8336 22.6934C23.5687 22.4779 24.1729 21.9519 24.4878 21.2535L30.1722 8.64568Z" fill="url(#paint0_linear_2009_415)"/>
<defs>
<linearGradient id="paint0_linear_2009_415" x1="32.9246" y1="59.1742" x2="39.0969" y2="-29.9249" gradientUnits="userSpaceOnUse">
<stop stop-color="#FFEF5B"/>
<stop offset="1" stop-color="#F9B345"/>
</linearGradient>
</defs>
</svg>
